<?xml version="1.0" encoding="UTF-8" standalone="no"?>
<!-- Created with Inkscape (http://www.inkscape.org/) -->

<svg
   version="1.1"
   id="svg1"
   width="1122.5195"
   height="80"
   viewBox="0 0 1122.5195 80"
   sodipodi:docname="c82ad41c-4f67-41ab-8f09-e50706617908.ai"
   xmlns:inkscape="http://www.inkscape.org/namespaces/inkscape"
   xmlns:sodipodi="http://sodipodi.sourceforge.net/DTD/sodipodi-0.dtd"
   xmlns="http://www.w3.org/2000/svg"
   xmlns:svg="http://www.w3.org/2000/svg">
  <defs
     id="defs1" />
  <sodipodi:namedview
     id="namedview1"
     pagecolor="#ffffff"
     bordercolor="#000000"
     borderopacity="0.25"
     inkscape:showpageshadow="2"
     inkscape:pageopacity="0.0"
     inkscape:pagecheckerboard="0"
     inkscape:deskcolor="#d1d1d1">
    <inkscape:page
       x="0"
       y="0"
       inkscape:label="1"
       id="page1"
       width="1122.5195"
       height="793.7005"
       margin="705.888 0.35546666 0.47786668 0.1302"
       bleed="0" />
  </sodipodi:namedview>
  <g
     id="g1"
     inkscape:groupmode="layer"
     inkscape:label="1">
    <g
       id="g2">
      <path
         id="path3"
         d="m -88.32959,53.99707 c -5.27588,0 -9.5498,4.27686 -9.5498,9.55078 0,5.27832 4.27392,9.55176 9.5498,9.55176 1.85889,0 3.59521,-0.52881 5.06152,-1.44678 l -5.06152,-8.10498 9.53076,5.50195 c -1.03369,1.65284 -2.52148,3.07715 -4.3208,4.15577 -2.28271,1.36523 -5.45947,2.2124 -8.97461,2.2124 -5.01465,0 -9.41308,-1.81885 -11.86426,-4.54883 -1.81543,-2.01758 -2.89746,-4.56201 -2.89746,-7.32129 0,-2.76025 1.08203,-5.30224 2.89746,-7.31738 2.4585,-2.73731 6.79102,-4.54834 11.72168,-4.54834 4.93018,0 9.25928,1.81103 11.72266,4.54834 0.13428,0.14892 0.26465,0.30273 0.3916,0.45361 l -0.37305,1.39942 c -1.72558,-2.47168 -4.59277,-4.08643 -7.83398,-4.08643 z"
         style="fill:#e31b22;fill-opacity:1;fill-rule:nonzero;stroke:none"
         transform="matrix(1.3333333,0,0,-1.3333333,161.66145,116.30469)" />
      <path
         id="path4"
         d="m -56.73535,52.25732 -3.99805,14.92627 c -0.64258,2.40967 -2.83984,4.1836 -5.45312,4.1836 -0.67774,0 -1.32813,-0.12305 -1.9292,-0.34033 l -8.61231,-3.13623 h 8.85987 l 1.51318,-5.64942 c -1.46924,1.26563 -3.3833,2.02881 -5.47559,2.02881 -4.15576,0 -7.5249,-2.78223 -7.5249,-6.21924 0,-3.43799 3.36914,-6.22803 7.5249,-6.22803 2.99073,0 5.63965,1.46338 7.27002,3.71534 l 0.88037,-3.28077 h 6.94483 m -12.20166,2.31788 c -1.91846,0 -3.47168,1.55908 -3.47168,3.47558 0,1.91797 1.55322,3.47412 3.47168,3.47412 1.9209,0 3.47803,-1.55615 3.47803,-3.47412 0,-1.9165 -1.55713,-3.47558 -3.47803,-3.47558 z"
         style="fill:#e31b22;fill-opacity:1;fill-rule:nonzero;stroke:none"
         transform="matrix(1.3333333,0,0,-1.3333333,161.66145,116.30469)" />
      <path
         id="path5"
         d="m -40.42383,71.36719 c -0.52881,0 -1.02246,-0.12305 -1.46924,-0.32569 l -5.52343,-2.5791 c -0.27198,1.646 -1.70411,2.90479 -3.42774,2.90479 -0.52539,0 -1.02392,-0.12305 -1.46924,-0.32569 l -6.75146,-3.15087 h 4.74902 V 52.25732 h 6.9458 v 13.89747 c 0,0.95703 0.77832,1.73584 1.73584,1.73584 0.96094,0 1.73584,-0.77881 1.73584,-1.73584 V 52.25732 h 6.94824 v 15.63331 c 0,1.91845 -1.55664,3.47656 -3.47363,3.47656 z"
         style="fill:#e31b22;fill-opacity:1;fill-rule:nonzero;stroke:none"
         transform="matrix(1.3333333,0,0,-1.3333333,161.66145,116.30469)" />
      <path
         id="path6"
         d="m 3.14063,71.36719 c -0.52491,0 -1.02344,-0.12305 -1.4712,-0.32569 l -5.52148,-2.5791 c -0.27588,1.646 -1.70459,2.90479 -3.42725,2.90479 -0.52441,0 -1.02295,-0.12305 -1.47021,-0.32569 l -6.75195,-3.15087 h 4.74755 V 52.25732 h 6.94727 v 13.89747 c 0,0.95703 0.77637,1.73584 1.73535,1.73584 0.95996,0 1.73633,-0.77881 1.73633,-1.73584 V 52.25732 h 6.95019 v 15.63331 c 0,1.91845 -1.55371,3.47656 -3.4746,3.47656 z"
         style="fill:#e31b22;fill-opacity:1;fill-rule:nonzero;stroke:none"
         transform="matrix(1.3333333,0,0,-1.3333333,161.66145,116.30469)" />
      <path
         id="path7"
         d="m -14.37402,61.5249 c 0,-5.43652 -4.40381,-9.84277 -9.84082,-9.84277 -5.43506,0 -9.84131,4.40625 -9.84131,9.84277 0,5.43164 4.40625,9.84229 9.84131,9.84229 5.43701,0 9.84082,-4.41065 9.84082,-9.84229 m -9.42823,6.85156 c -0.30957,1.15772 -1.50097,1.84522 -2.6582,1.53223 -1.1582,-0.30957 -1.84912,-1.49756 -1.53564,-2.65869 l 3.37304,-12.58154 c 0.30811,-1.15674 1.49756,-1.84571 2.65674,-1.53125 1.15332,0.30761 1.84424,1.49804 1.53125,2.66015 z"
         style="fill:#e31b22;fill-opacity:1;fill-rule:nonzero;stroke:none"
         transform="matrix(1.3333333,0,0,-1.3333333,161.66145,116.30469)" />
      <path
         id="path8"
         d="m -106.75195,32.79688 v 7.76464 h 1.60937 c 1.16113,0 2.00293,-0.09326 2.52588,-0.28027 0.75244,-0.26172 1.34326,-0.72021 1.76563,-1.37158 0.42334,-0.6499 0.63818,-1.42822 0.63818,-2.32959 0,-0.7749 -0.16943,-1.4585 -0.50586,-2.05029 -0.33496,-0.59229 -0.77295,-1.02881 -1.30859,-1.31104 -0.53467,-0.28174 -1.28858,-0.42187 -2.25586,-0.42187 h -2.46875 m 0.74902,0.73779 h 0.89502 c 1.07178,0 1.81055,0.06738 2.22461,0.20019 0.58203,0.18946 1.04297,0.53077 1.37451,1.02588 0.33301,0.49512 0.49902,1.09912 0.49902,1.81153 0,0.74853 -0.17871,1.38574 -0.54199,1.91552 -0.36084,0.53223 -0.86474,0.89453 -1.51025,1.0918 -0.48389,0.14844 -1.28028,0.22021 -2.39404,0.22021 h -0.54688 z"
         style="fill:#231f20;fill-opacity:1;fill-rule:nonzero;stroke:none"
         transform="matrix(1.3333333,0,0,-1.3333333,161.66145,116.30469)" />
      <path
         id="path9"
         d="m -93.98389,34.7168 0.62256,-0.3291 c -0.20605,-0.40381 -0.44336,-0.73047 -0.71045,-0.97706 -0.26806,-0.24951 -0.57031,-0.43652 -0.90381,-0.56543 -0.33496,-0.13085 -0.7163,-0.19628 -1.13769,-0.19628 -0.93848,0 -1.67139,0.30957 -2.19971,0.92187 -0.52881,0.61524 -0.79443,1.31006 -0.79443,2.08399 0,0.7246 0.2251,1.37646 0.67138,1.94628 0.56934,0.72461 1.33057,1.08789 2.28272,1.08789 0.97754,0 1.76367,-0.36962 2.34717,-1.10986 0.41748,-0.52148 0.62744,-1.17383 0.63769,-1.95556 h -5.18847 c 0.01416,-0.67139 0.22656,-1.21827 0.64257,-1.64991 0.41309,-0.4292 0.92481,-0.64404 1.53125,-0.64404 0.29346,0 0.57959,0.05371 0.85694,0.15381 0.27685,0.10351 0.51416,0.23974 0.70703,0.4126 0.19726,0.16748 0.40918,0.44238 0.63525,0.8208 m -0.0029,1.5415 c -0.10009,0.39307 -0.24463,0.7085 -0.43115,0.94092 -0.19141,0.23584 -0.44043,0.42773 -0.75049,0.57129 -0.31152,0.1416 -0.63965,0.21435 -0.98291,0.21435 -0.56592,0 -1.05176,-0.18164 -1.45752,-0.54199 -0.29687,-0.26074 -0.52392,-0.65723 -0.67236,-1.18457 z"
         style="fill:#231f20;fill-opacity:1;fill-rule:nonzero;stroke:none"
         transform="matrix(1.3333333,0,0,-1.3333333,161.66145,116.30469)" />
      <path
         id="path10"
         d="m -91.91016,40.75391 h 0.73877 v -7.95703 h -0.73877 z"
         style="fill:#231f20;fill-opacity:1;fill-rule:nonzero;stroke:none"
         transform="matrix(1.3333333,0,0,-1.3333333,161.66145,116.30469)" />
      <path
         id="path11"
         d="m -89.38232,40.90186 c 0.17041,0 0.31396,-0.06153 0.43212,-0.17774 0.11963,-0.12158 0.17872,-0.26416 0.17872,-0.43164 0,-0.16553 -0.05909,-0.3042 -0.17872,-0.42578 -0.11816,-0.11914 -0.26171,-0.1792 -0.43212,-0.1792 -0.16358,0 -0.30469,0.06006 -0.42627,0.1792 -0.12012,0.12158 -0.17774,0.26025 -0.17774,0.42578 0,0.16748 0.05762,0.31006 0.17774,0.43164 0.12158,0.11621 0.26269,0.17774 0.42627,0.17774 m -0.36573,-2.36084 h 0.73926 v -5.74414 h -0.73926 z"
         style="fill:#231f20;fill-opacity:1;fill-rule:nonzero;stroke:none"
         transform="matrix(1.3333333,0,0,-1.3333333,161.66145,116.30469)" />
      <path
         id="path12"
         d="m -82.52051,38.54102 h 0.73731 v -4.57569 c 0,-0.80615 -0.06983,-1.39599 -0.21094,-1.76806 -0.19434,-0.52832 -0.53174,-0.93604 -1.01025,-1.22071 -0.4795,-0.28467 -1.05323,-0.42773 -1.7251,-0.42773 -0.49317,0 -0.93604,0.0708 -1.32959,0.21191 -0.39014,0.13623 -0.71094,0.32617 -0.9585,0.56104 -0.24463,0.23535 -0.47217,0.58252 -0.67969,1.03174 h 0.80518 c 0.21826,-0.38038 0.50049,-0.66065 0.8457,-0.84571 0.34717,-0.1831 0.77442,-0.27832 1.28418,-0.27832 0.50489,0 0.9292,0.09668 1.27491,0.28272 0.34716,0.18896 0.59716,0.42236 0.74316,0.70508 0.1499,0.28662 0.22363,0.7456 0.22363,1.375 v 0.29638 c -0.28027,-0.34912 -0.61963,-0.62158 -1.02148,-0.80859 -0.40332,-0.18945 -0.82813,-0.2832 -1.28174,-0.2832 -0.5293,0 -1.02686,0.13134 -1.4917,0.39404 -0.46533,0.26318 -0.82617,0.61474 -1.08057,1.05762 -0.25488,0.44482 -0.38232,0.93164 -0.38232,1.46386 0,0.53125 0.13379,1.02442 0.39795,1.48438 0.26514,0.45947 0.62988,0.82422 1.09814,1.09082 0.46729,0.2666 0.96192,0.40136 1.47852,0.40136 0.43359,0 0.83105,-0.0874 1.20605,-0.26757 0.37159,-0.17578 0.73145,-0.47168 1.07715,-0.87744 v 0.99707 m -2.18554,-0.56885 c -0.42286,0 -0.8086,-0.10108 -1.16797,-0.30127 -0.36133,-0.20313 -0.64307,-0.48194 -0.84815,-0.84131 -0.20459,-0.35889 -0.30566,-0.74268 -0.30566,-1.16016 0,-0.63086 0.2124,-1.14746 0.6333,-1.56152 0.42383,-0.4126 0.97119,-0.61865 1.64551,-0.61865 0.68017,0 1.22656,0.20459 1.64111,0.61328 0.41064,0.40723 0.61914,0.94629 0.61914,1.61133 0,0.43164 -0.09326,0.81689 -0.28564,1.15625 -0.18995,0.34082 -0.45801,0.6084 -0.80616,0.80713 -0.35107,0.19531 -0.72461,0.29492 -1.12548,0.29492 z"
         style="fill:#231f20;fill-opacity:1;fill-rule:nonzero;stroke:none"
         transform="matrix(1.3333333,0,0,-1.3333333,161.66145,116.30469)" />
      <path
         id="path13"
         d="m -80.19678,40.75391 h 0.73584 v -3.24219 c 0.29981,0.39355 0.62744,0.68701 0.98926,0.88428 0.35791,0.1958 0.74512,0.29296 1.16455,0.29296 0.43018,0 0.81055,-0.11035 1.14209,-0.33203 0.33106,-0.21484 0.57715,-0.50781 0.73633,-0.87548 0.1582,-0.36719 0.23584,-0.94336 0.23584,-1.72754 v -2.95703 h -0.73779 v 2.73876 c 0,0.6626 -0.02442,1.10499 -0.07813,1.3252 -0.09424,0.38037 -0.2583,0.66699 -0.49853,0.8584 -0.24268,0.19287 -0.55664,0.28906 -0.94727,0.28906 -0.44775,0 -0.84473,-0.14795 -1.20166,-0.44287 -0.35156,-0.2959 -0.58496,-0.66357 -0.69727,-1.1001 -0.06982,-0.28125 -0.10742,-0.80078 -0.10742,-1.5625 v -2.10595 h -0.73584 z"
         style="fill:#231f20;fill-opacity:1;fill-rule:nonzero;stroke:none"
         transform="matrix(1.3333333,0,0,-1.3333333,161.66145,116.30469)" />
      <path
         id="path14"
         d="m -72.96777,40.67578 h 0.73681 v -2.13476 h 1.16895 v -0.63575 h -1.16895 v -5.10839 h -0.73681 v 5.10839 h -1.01221 v 0.63575 h 1.01221 z"
         style="fill:#231f20;fill-opacity:1;fill-rule:nonzero;stroke:none"
         transform="matrix(1.3333333,0,0,-1.3333333,161.66145,116.30469)" />
      <path
         id="path15"
         d="m -69.69287,40.90186 c 0.1709,0 0.31494,-0.06153 0.43359,-0.17774 0.12012,-0.12158 0.17969,-0.26416 0.17969,-0.43164 0,-0.16553 -0.05957,-0.3042 -0.17969,-0.42578 -0.11865,-0.11914 -0.26269,-0.1792 -0.43359,-0.1792 -0.1626,0 -0.30469,0.06006 -0.42285,0.1792 -0.11817,0.12158 -0.17871,0.26025 -0.17871,0.42578 0,0.16748 0.06054,0.31006 0.17871,0.43164 0.11816,0.11621 0.26025,0.17774 0.42285,0.17774 m -0.36475,-2.36084 h 0.73926 v -5.74414 h -0.73926 z"
         style="fill:#231f20;fill-opacity:1;fill-rule:nonzero;stroke:none"
         transform="matrix(1.3333333,0,0,-1.3333333,161.66145,116.30469)" />
      <path
         id="path16"
         d="m -67.77832,38.54102 h 0.7373 v -1.0293 c 0.29786,0.39355 0.62207,0.68701 0.98145,0.88428 0.35889,0.1958 0.74756,0.29296 1.17187,0.29296 0.42823,0 0.80909,-0.11035 1.14112,-0.33203 0.33154,-0.21484 0.57763,-0.50781 0.73779,-0.87841 0.15674,-0.36573 0.23682,-0.94581 0.23682,-1.72461 v -2.95703 h -0.73731 v 2.73876 c 0,0.6626 -0.02929,1.10499 -0.08691,1.3252 -0.08496,0.38037 -0.25147,0.66699 -0.49268,0.8584 -0.24267,0.19287 -0.55908,0.28906 -0.94873,0.28906 -0.44678,0 -0.84521,-0.14795 -1.19824,-0.44287 -0.35498,-0.2959 -0.58643,-0.66357 -0.69922,-1.1001 -0.07129,-0.28369 -0.10596,-0.80469 -0.10596,-1.5625 v -2.10595 h -0.7373 z"
         style="fill:#231f20;fill-opacity:1;fill-rule:nonzero;stroke:none"
         transform="matrix(1.3333333,0,0,-1.3333333,161.66145,116.30469)" />
      <path
         id="path17"
         d="m -56.2373,38.54102 h 0.73779 v -4.57569 c 0,-0.80615 -0.07227,-1.39599 -0.21436,-1.76806 -0.1914,-0.52832 -0.52685,-0.93604 -1.00634,-1.22071 -0.47852,-0.28467 -1.05469,-0.42773 -1.72559,-0.42773 -0.49316,0 -0.93604,0.0708 -1.32959,0.21191 -0.39209,0.13623 -0.71045,0.32617 -0.95703,0.56104 -0.24805,0.23535 -0.47363,0.58252 -0.68213,1.03174 h 0.80615 c 0.2168,-0.38038 0.50098,-0.66065 0.84473,-0.84571 0.34668,-0.1831 0.7749,-0.27832 1.28515,-0.27832 0.50391,0 0.93018,0.09668 1.27588,0.28272 0.34815,0.18896 0.59571,0.42236 0.74317,0.70508 0.14746,0.28662 0.22217,0.7456 0.22217,1.375 v 0.29638 c -0.28125,-0.34912 -0.61963,-0.62158 -1.02149,-0.80859 -0.40283,-0.18945 -0.83154,-0.2832 -1.2793,-0.2832 -0.53027,0 -1.03027,0.13134 -1.49658,0.39404 -0.46582,0.26318 -0.82422,0.61474 -1.07568,1.05762 -0.25635,0.44482 -0.3833,0.93164 -0.3833,1.46386 0,0.53125 0.13232,1.02442 0.39746,1.48438 0.26269,0.45947 0.63086,0.82422 1.09912,1.09082 0.46533,0.2666 0.96045,0.40136 1.47705,0.40136 0.42969,0 0.83398,-0.0874 1.20459,-0.26757 0.37256,-0.17578 0.73242,-0.47168 1.07813,-0.87744 v 0.99707 m -2.1875,-0.56885 c -0.41895,0 -0.80713,-0.10108 -1.16749,-0.30127 -0.35791,-0.20313 -0.64111,-0.48194 -0.84423,-0.84131 -0.20362,-0.35889 -0.30811,-0.74268 -0.30811,-1.16016 0,-0.63086 0.21094,-1.14746 0.63623,-1.56152 0.41944,-0.4126 0.96973,-0.61865 1.64209,-0.61865 0.68067,0 1.22803,0.20459 1.64063,0.61328 0.41552,0.40723 0.62109,0.94629 0.62109,1.61133 0,0.43164 -0.09521,0.81689 -0.28516,1.15625 -0.19043,0.34082 -0.458,0.6084 -0.80908,0.80713 -0.34765,0.19531 -0.72314,0.29492 -1.12597,0.29492 z"
         style="fill:#231f20;fill-opacity:1;fill-rule:nonzero;stroke:none"
         transform="matrix(1.3333333,0,0,-1.3333333,161.66145,116.30469)" />
      <path
         id="path18"
         d="m -51.4209,40.56152 h 0.89258 l 1.99951,-3.23242 1.96045,3.23242 h 0.89063 l -2.46387,-4.05468 v -3.70996 h -0.77002 v 3.70996 z"
         style="fill:#231f20;fill-opacity:1;fill-rule:nonzero;stroke:none"
         transform="matrix(1.3333333,0,0,-1.3333333,161.66145,116.30469)" />
      <path
         id="path19"
         d="m -42.77637,38.68896 c 0.8833,0 1.61573,-0.32324 2.19483,-0.96044 0.52881,-0.58448 0.79492,-1.27491 0.79492,-2.07373 0,-0.8042 -0.27979,-1.50684 -0.83789,-2.10596 -0.55664,-0.59961 -1.27735,-0.8999 -2.15186,-0.8999 -0.87842,0 -1.60107,0.30029 -2.1582,0.8999 -0.55713,0.59912 -0.83545,1.30176 -0.83545,2.10596 0,0.79345 0.26465,1.48339 0.7915,2.06787 0.58204,0.64111 1.3169,0.9663 2.20215,0.9663 m -4.9e-4,-0.72558 c -0.61523,0 -1.14111,-0.22852 -1.58398,-0.68018 -0.43945,-0.45361 -0.66113,-1.00097 -0.66113,-1.64697 0,-0.41455 0.10107,-0.8042 0.30371,-1.15967 0.20019,-0.35986 0.47168,-0.63427 0.81201,-0.83105 0.34326,-0.19336 0.71973,-0.29199 1.12939,-0.29199 0.40723,0 0.7837,0.09863 1.12452,0.29199 0.34277,0.19678 0.61279,0.47119 0.81445,0.83105 0.20215,0.35547 0.30078,0.74512 0.30078,1.15967 0,0.646 -0.22119,1.19336 -0.66357,1.64697 -0.44287,0.45166 -0.96973,0.68018 -1.57618,0.68018 z"
         style="fill:#231f20;fill-opacity:1;fill-rule:nonzero;stroke:none"
         transform="matrix(1.3333333,0,0,-1.3333333,161.66145,116.30469)" />
      <path
         id="path20"
         d="m -38.51123,38.54102 h 0.73975 v -2.68116 c 0,-0.65771 0.03271,-1.10644 0.10351,-1.35449 0.10742,-0.35107 0.30664,-0.62891 0.60889,-0.83154 0.29687,-0.20947 0.65332,-0.3086 1.06836,-0.3086 0.41113,0 0.76269,0.09913 1.05029,0.2959 0.28809,0.20362 0.48877,0.45948 0.59717,0.78516 0.07519,0.22217 0.11035,0.69238 0.11035,1.41357 v 2.68116 h 0.74951 v -2.82081 c 0,-0.79101 -0.0918,-1.38623 -0.27539,-1.78759 -0.18506,-0.40283 -0.46435,-0.71582 -0.83447,-0.94239 -0.37207,-0.22412 -0.83838,-0.3413 -1.39746,-0.3413 -0.56104,0 -1.02783,0.11718 -1.40332,0.3413 -0.37451,0.22657 -0.6543,0.542 -0.83887,0.9502 -0.18457,0.40576 -0.27832,1.01758 -0.27832,1.8335 z"
         style="fill:#231f20;fill-opacity:1;fill-rule:nonzero;stroke:none"
         transform="matrix(1.3333333,0,0,-1.3333333,161.66145,116.30469)" />
      <path
         id="path21"
         d="m -25.55371,40.56152 3.6206,-7.76464 h -0.83886 l -1.20703,2.54345 h -3.36621 l -1.20264,-2.54345 h -0.86426 l 3.66504,7.76464 h 0.19336 m -0.10108,-1.63525 -1.33349,-2.82568 h 2.66553 z"
         style="fill:#231f20;fill-opacity:1;fill-rule:nonzero;stroke:none"
         transform="matrix(1.3333333,0,0,-1.3333333,161.66145,116.30469)" />
      <path
         id="path22"
         d="m -20.96045,40.75391 h 0.73486 v -7.95703 h -0.73486 z"
         style="fill:#231f20;fill-opacity:1;fill-rule:nonzero;stroke:none"
         transform="matrix(1.3333333,0,0,-1.3333333,161.66145,116.30469)" />
      <path
         id="path23"
         d="m -19.46924,38.54102 h 0.76465 l 1.74902,-4.16602 1.83692,4.16602 h 0.13183 l 1.84424,-4.16602 1.79053,4.16602 h 0.7583 l -2.48242,-5.74414 h -0.14014 l -1.83154,4.11035 -1.83594,-4.11035 h -0.14648 z"
         style="fill:#231f20;fill-opacity:1;fill-rule:nonzero;stroke:none"
         transform="matrix(1.3333333,0,0,-1.3333333,161.66145,116.30469)" />
      <path
         id="path24"
         d="M -3.99512,38.54102 V 32.79688 H -4.7334 v 0.98779 c -0.30762,-0.37744 -0.6543,-0.65869 -1.03613,-0.84912 -0.38428,-0.19043 -0.8042,-0.28662 -1.25977,-0.28662 -0.81103,0 -1.50049,0.29638 -2.07568,0.8833 -0.57422,0.58838 -0.86035,1.30859 -0.86035,2.15283 0,0.82617 0.29101,1.5332 0.86963,2.12305 0.57812,0.58691 1.27197,0.88085 2.08642,0.88085 0.46973,0 0.896,-0.10205 1.27588,-0.2998 0.38037,-0.20312 0.71436,-0.50293 1,-0.90625 v 1.05811 h 0.73828 m -2.95215,-0.56885 c -0.41064,0 -0.79003,-0.09961 -1.13378,-0.30127 -0.3462,-0.20313 -0.62403,-0.48731 -0.82618,-0.85108 -0.2041,-0.36279 -0.30908,-0.75048 -0.30908,-1.15918 0,-0.40478 0.10498,-0.79052 0.31104,-1.16064 0.20507,-0.36865 0.48242,-0.65625 0.83252,-0.8623 0.34716,-0.20313 0.7207,-0.30811 1.1206,-0.30811 0.40088,0 0.78076,0.10498 1.14063,0.30615 0.36328,0.20508 0.63964,0.48096 0.83349,0.8291 0.19287,0.3462 0.29102,0.73731 0.29102,1.17383 0,0.66455 -0.21924,1.22071 -0.65332,1.66406 -0.43506,0.44873 -0.96973,0.66944 -1.60694,0.66944 z"
         style="fill:#231f20;fill-opacity:1;fill-rule:nonzero;stroke:none"
         transform="matrix(1.3333333,0,0,-1.3333333,161.66145,116.30469)" />
      <path
         id="path25"
         d="m -2.94238,38.54102 h 0.76855 l 1.97803,-4.40528 1.92627,4.40528 h 0.78467 l -3.42725,-7.84375 h -0.78467 l 1.12158,2.56982 z"
         style="fill:#231f20;fill-opacity:1;fill-rule:nonzero;stroke:none"
         transform="matrix(1.3333333,0,0,-1.3333333,161.66145,116.30469)" />
      <path
         id="path26"
         d="M 6.36963,37.91943 5.896,37.4292 C 5.5,37.81689 5.11377,38.0083 4.73389,38.0083 4.49512,38.0083 4.29053,37.92529 4.11621,37.77051 3.94629,37.6123 3.86182,37.42578 3.86182,37.2124 c 0,-0.18457 0.07031,-0.36474 0.21045,-0.53222 0.14062,-0.17334 0.43457,-0.37647 0.88964,-0.60791 0.54786,-0.28614 0.91993,-0.56153 1.11719,-0.82666 0.19385,-0.26807 0.29053,-0.56641 0.29053,-0.90332 0,-0.47022 -0.1665,-0.87012 -0.49902,-1.20166 -0.32959,-0.32862 -0.74317,-0.4917 -1.23975,-0.4917 -0.33203,0 -0.65039,0.07324 -0.95117,0.21435 -0.30225,0.14746 -0.55127,0.34375 -0.74854,0.59717 l 0.46338,0.52832 c 0.37793,-0.42432 0.77832,-0.63525 1.20166,-0.63525 0.2959,0 0.55029,0.09668 0.75733,0.28418 0.20752,0.18994 0.31298,0.4165 0.31298,0.67089 0,0.21338 -0.06836,0.40284 -0.20605,0.57178 -0.1377,0.1582 -0.44922,0.36328 -0.93018,0.60986 -0.51904,0.26758 -0.87011,0.53223 -1.05761,0.792 -0.18897,0.25781 -0.28272,0.55615 -0.28272,0.89111 0,0.43359 0.15088,0.79541 0.44824,1.0835 0.29834,0.28857 0.67578,0.43212 1.13184,0.43212 0.5293,0 1.06201,-0.25585 1.59961,-0.76953 z"
         style="fill:#231f20;fill-opacity:1;fill-rule:nonzero;stroke:none"
         transform="matrix(1.3333333,0,0,-1.3333333,161.66145,116.30469)" />
      <path
         id="path27"
         d="m 576.90625,52.68555 c -0.25098,0.89843 -0.43652,1.52539 -0.49512,1.64062 -0.0596,0.11328 -0.1123,0.22559 -0.18554,0.34082 l -0.20411,0.23926 c -0.0918,0.0918 -0.13085,0.18652 -0.12402,0.28613 0.0137,0.10059 0.12402,0.2461 0.32813,0.2461 0.50195,-0.02246 0.87793,-0.12012 1.13964,-0.29297 0.26075,-0.16602 0.46485,-0.38672 0.48438,-0.47852 0,-0.04687 -0.0215,-0.13086 -0.083,-0.25683 -0.0566,-0.12012 -0.13183,-0.26563 -0.1123,-0.42481 0,-0.06836 0.0723,-0.54394 0.17968,-1.09082 0.7002,0.2002 1.22559,0.30274 1.56836,0.30274 0.22266,-0.01758 0.40821,-0.08985 0.57325,-0.20215 0.15722,-0.11426 0.24316,-0.2168 0.24316,-0.30957 -0.0273,-0.11035 -0.11621,-0.22071 -0.27637,-0.32227 -0.15625,-0.10156 -0.80761,-0.24512 -1.93945,-0.42383 0.18164,-1.02636 0.55371,-2.13965 1.12012,-3.33984 0.0703,0.13965 0.16113,0.31152 0.27929,0.53125 0.10645,0.20996 0.2168,0.44727 0.31836,0.69336 0.10059,0.25195 0.16797,0.43164 0.1875,0.5459 l -0.0693,0.67968 c 0.0498,0.07422 0.12597,0.10352 0.23633,0.10352 0.14355,-0.02148 0.37988,-0.15234 0.7373,-0.3916 0.34863,-0.24121 0.52734,-0.41406 0.52734,-0.53027 -0.0273,-0.08594 -0.0537,-0.15528 -0.085,-0.20215 -0.0381,-0.04395 -0.1289,-0.13282 -0.27343,-0.26856 -0.14747,-0.14062 -0.28223,-0.29883 -0.39161,-0.48144 l -0.27246,-0.47559 c -0.15625,-0.24902 -0.375,-0.58105 -0.64843,-0.98828 0.2041,-0.33789 0.58398,-0.75293 1.14355,-1.24219 0.55469,-0.48828 0.97168,-0.72363 1.24512,-0.70019 0.18066,0 0.40918,0.2373 0.6748,0.71582 l 0.41406,0.71582 c 0.0898,0.16015 0.16016,0.25293 0.19825,0.27441 0.0488,0.01953 0.0967,0 0.13867,-0.07129 l -0.0674,-0.44043 -0.0713,-0.68164 c -0.0205,-0.04687 -0.0205,-0.15918 0,-0.34179 v -0.30762 c 0,-0.17676 0.0371,-0.38574 0.10742,-0.61231 0.0693,-0.22461 0.0996,-0.37207 0.0996,-0.44336 -0.043,-0.29296 -0.23633,-0.41796 -0.57715,-0.37402 -1.22559,0.08984 -2.54395,0.98731 -3.94922,2.69238 -0.48535,-0.47656 -0.94726,-0.85254 -1.39648,-1.12597 l -0.3418,-0.20117 c -0.0234,-0.0254 -0.082,-0.0254 -0.17383,0 -0.0889,0.02148 -0.14258,0.05859 -0.15039,0.11914 -0.0107,0.05468 0.0137,0.11816 0.085,0.18457 l 0.27442,0.27636 c 0.33593,0.33692 0.75586,0.82813 1.25586,1.46387 -0.45313,0.86133 -0.74415,1.52051 -0.88477,1.97461 -0.13477,0.45508 -0.375,1.16016 -0.58008,2.1123 -0.59961,-0.13867 -1.02344,-0.23339 -1.43164,-0.29101 -0.4082,-0.05762 -0.81738,-0.125 -1.23828,-0.20508 -0.42578,-0.08203 -0.79395,-0.06152 -1.10938,0.05274 -0.0469,-0.16309 -0.0674,-0.27149 -0.0674,-0.34278 l -0.0361,-0.54101 c -0.0225,-0.04883 -0.0439,-0.19141 -0.0703,-0.42481 -0.0205,-0.24121 -0.0479,-0.54297 -0.084,-0.9082 -0.0342,-0.36133 -0.0625,-0.59473 -0.0859,-0.69629 -0.0186,-0.10059 -0.0859,-0.35254 -0.19921,-0.74512 -0.12207,-0.40137 -0.20313,-0.66894 -0.25782,-0.80664 -0.0596,-0.13476 -0.1914,-0.35058 -0.40722,-0.64258 -0.21582,-0.29785 -0.46582,-0.56933 -0.75391,-0.82226 -0.2832,-0.24707 -0.45898,-0.39649 -0.52344,-0.43848 l -0.51758,-0.31055 c -0.13085,-0.08593 -0.24316,-0.13964 -0.33203,-0.15136 -0.0947,-0.01075 -0.13672,0.0068 -0.13672,0.05078 0,0.04492 0.0146,0.08984 0.0303,0.13769 l 0.37305,0.33887 0.30957,0.37305 c 0.40722,0.5 0.73535,1.01269 0.98925,1.53222 0.24903,0.52344 0.41211,1.05176 0.49024,1.58594 0.0859,0.5332 0.13476,0.92578 0.15332,1.17383 v 0.68457 c 0,0.36523 0,0.55566 0,0.57715 -0.0186,0.3418 -0.0937,0.60351 -0.21778,0.78223 -0.12793,0.18457 -0.17675,0.30859 -0.15429,0.37792 0,0.13575 0.0879,0.21485 0.27148,0.23731 0.0439,0 0.24219,-0.0752 0.59961,-0.21777 0.34961,-0.14942 0.61524,-0.21289 0.7959,-0.18848 0.43164,0 1.51855,0.23633 3.40332,0.71094 m -5.95703,-9.57032 c 0.0479,0.13477 0.0781,0.25586 0.10156,0.35938 0.0195,0.10254 0.0508,0.26367 0.0859,0.47363 0.0371,0.21778 0.12988,0.29199 0.29004,0.22364 0.042,-0.0459 0.10351,-0.11915 0.18554,-0.22364 0.0801,-0.10547 0.14356,-0.21582 0.19043,-0.35644 0.04,-0.13379 0.0752,-0.3125 0.0859,-0.52539 0.01,-0.2168 0.007,-0.40918 -0.0215,-0.56055 -0.0645,-0.57227 -0.20313,-0.97852 -0.41309,-1.23145 -0.19629,-0.24804 -0.35742,-0.36132 -0.47168,-0.33984 -0.10937,0 -0.20508,0.0459 -0.27441,0.1377 -0.0693,0.09179 -0.12793,0.21191 -0.18555,0.375 -0.0576,0.15722 -0.0918,0.29394 -0.10449,0.40625 -0.006,0.11621 0.0303,0.24902 0.125,0.41015 l 0.20312,0.37305 0.20313,0.47851 m 3.40723,3.06543 c 0,-0.11328 0.004,-0.19628 0.0137,-0.25586 0.0186,-0.05664 -0.0137,-0.16308 -0.082,-0.32128 -0.0684,-0.15918 -0.1836,-0.1377 -0.34375,0.06836 -0.0898,0.06445 -0.15039,0.1582 -0.16895,0.2705 l -0.10449,0.34082 -0.12988,0.37891 c -0.0293,0.04004 -0.0703,0.21191 -0.13575,0.50977 l -0.10547,0.40722 c -0.0234,0.04688 -0.0693,0.14356 -0.15332,0.30664 -0.0791,0.15821 -0.12597,0.30176 -0.13769,0.42481 -0.006,0.12597 0.0791,0.18652 0.25781,0.18652 0,-0.02148 0.0449,-0.05078 0.15235,-0.08496 0.10351,-0.0332 0.25195,-0.03906 0.45898,-0.01856 0.29687,0 0.68848,0.06641 1.17187,0.20606 0.49122,0.13965 0.8125,0.26465 0.95606,0.39453 0.14941,0.12012 0.25195,0.18555 0.32715,0.18555 0.8125,-0.36231 1.22558,-0.625 1.22558,-0.78614 -0.0244,-0.06542 -0.10644,-0.18164 -0.23632,-0.34082 -0.13868,-0.15918 -0.21875,-0.27246 -0.24414,-0.33691 l -0.12793,-0.27051 c -0.0479,-0.09668 -0.0771,-0.15234 -0.0918,-0.17578 -0.0127,-0.02051 0.0147,-0.08105 0.0723,-0.16797 0.0537,-0.09179 0.0869,-0.19433 0.0996,-0.30664 0.0108,-0.11328 -0.12207,-0.19336 -0.38964,-0.24023 l -0.58399,-0.13477 c -0.72754,-0.18359 -1.29297,-0.26465 -1.70019,-0.23926 m -0.68555,-3.57714 -0.33692,0.44628 c -0.11132,0.11036 -0.16503,0.19239 -0.15722,0.23438 0.0117,0.04492 0.0615,0.10449 0.13476,0.17383 0.0879,0.06347 0.2002,0.04492 0.35938,-0.06934 l 0.41406,-0.375 c 0.11524,-0.1123 0.4834,-0.35644 1.12012,-0.71582 0.63574,-0.36426 1.55176,-0.54785 2.72851,-0.54785 0.2959,-0.02051 0.56641,-0.002 0.81739,0.05273 0.25,0.0586 0.3916,0.1377 0.42578,0.24122 0.0361,0.10058 0.0596,0.208 0.0703,0.32226 0.006,0.11231 -0.0342,0.30664 -0.12402,0.58106 l -0.13575,0.40527 c 0,0 -0.0273,0.1543 -0.0117,0.1875 0.008,0.03711 0.0498,0.04297 0.13086,0.03711 0.0811,-0.0127 0.14257,-0.04199 0.1875,-0.08594 l 0.23925,-0.41211 c 0.0918,-0.1582 0.28809,-0.37402 0.5918,-0.64258 0.31055,-0.27246 0.54785,-0.46679 0.70605,-0.583 0.1543,-0.11231 0.25098,-0.20606 0.26954,-0.27442 0.0234,-0.0625 0.0371,-0.12988 0.0517,-0.18359 0.009,-0.0586 -0.0215,-0.1211 -0.084,-0.18848 -0.1875,-0.22656 -0.66504,-0.39258 -1.44922,-0.49023 -0.78613,-0.10352 -1.31152,-0.14356 -1.58301,-0.12305 -0.50195,0.02148 -0.98828,0.07617 -1.46679,0.1582 -0.4795,0.07618 -1.00684,0.30274 -1.58496,0.67774 -0.57325,0.37304 -1.01172,0.76465 -1.31348,1.17383 m 1.19629,7.87207 c 0.24609,0.06543 0.50683,0.15722 0.76269,0.26953 0.26465,0.11621 0.48633,0.18457 0.66895,0.20605 0.49414,0 0.75586,-0.0791 0.7666,-0.2373 0.009,-0.16016 0.006,-0.26172 -0.0176,-0.30762 -0.0713,-0.11816 -0.35058,-0.25 -0.85742,-0.39258 -0.49219,-0.14551 -0.80957,-0.23633 -0.92871,-0.25293 -0.13086,-0.02539 -0.36231,-0.03906 -0.70215,-0.03906 -0.11328,-0.0166 -0.20312,-0.01172 -0.27148,0.03906 l -0.23926,0.09864 c -0.0957,0.02343 -0.16406,0.05957 -0.2168,0.10058 -0.0615,0.04981 -0.0195,0.11621 0.11231,0.20703 l 0.34375,0.09961 0.5791,0.20899 m 0.18261,-3.61426 c 0.35157,0.0918 0.56055,0.1709 0.62012,0.24023 0.0527,0.07032 0.0977,0.16309 0.13477,0.28907 0.0303,0.12402 0.0605,0.23828 0.0879,0.33886 0.0186,0.10254 0.0371,0.17285 0.0449,0.2041 0.0117,0.03711 0.0234,0.08985 0.0391,0.15235 0.0107,0.07129 -0.0986,0.11621 -0.32617,0.13672 -0.0674,0 -0.26465,-0.04297 -0.58008,-0.13672 -0.32226,-0.08887 -0.62402,-0.14453 -0.91504,-0.16602 0,-0.16015 0.009,-0.26074 0.0312,-0.30469 l 0.10157,-0.44335 0.0684,-0.50977 c 0.11621,0.04004 0.34375,0.11133 0.69335,0.19922 m 0.26075,-1.87012 c 0,0.13281 0.0996,0.19141 0.30859,0.16895 0.22168,-0.06739 0.52051,-0.11621 0.88281,-0.13965 0.36328,-0.02051 0.62012,-0.13477 0.76563,-0.33985 0.14551,-0.20312 0.23633,-0.34961 0.24902,-0.44043 0,0 0.0244,-0.04785 0.0244,-0.1289 0,-0.08106 -0.0244,-0.17676 -0.0244,-0.17676 -0.0127,-0.07129 -0.0732,-0.14844 -0.16113,-0.23535 -0.0918,-0.09766 -0.18848,-0.13184 -0.27734,-0.10742 -0.36036,0.04394 -0.75196,0.26855 -1.17579,0.66211 -0.41699,0.40039 -0.61425,0.6455 -0.59179,0.7373 m 4.59765,8.61426 -0.47949,0.37988 c -0.29394,0.22559 -0.42773,0.38184 -0.40332,0.47168 0,0.07129 0.10938,0.11524 0.33984,0.13965 l 0.70997,0.13184 c 0.32421,-0.0459 0.61425,-0.19043 0.88476,-0.44141 0.28027,-0.24902 0.4043,-0.48828 0.37988,-0.71191 -0.0439,-0.1875 -0.15722,-0.3379 -0.33691,-0.46387 -0.18848,-0.1211 -0.55078,0.04101 -1.09473,0.49414 m 0.34082,-9.60449 c 0,0.09375 0.21289,0.13183 0.64746,0.12011 0.42579,-0.01367 0.82911,-0.04687 1.19434,-0.10351 0.36231,-0.05567 0.61621,-0.27246 0.76172,-0.64649 0.15039,-0.37597 0.22266,-0.59668 0.22266,-0.66601 -0.0195,-0.11035 -0.0723,-0.22656 -0.1504,-0.33887 -0.082,-0.11426 -0.16796,-0.17187 -0.2539,-0.17187 -0.27442,-0.01954 -0.75195,0.24707 -1.43067,0.80078 -0.68164,0.55859 -1.01171,0.89355 -0.99121,1.00586 z"
         style="fill:#231f20;fill-opacity:1;fill-rule:nonzero;stroke:none"
         transform="matrix(1.3333333,0,0,-1.3333333,161.66145,116.30469)" />
      <path
         id="path28"
         d="m 590.28027,48.55176 c 0.22657,-0.31836 0.34375,-0.48633 0.35059,-0.51074 0.0166,-0.02149 0.0215,-0.04395 0.0215,-0.06543 -0.0254,-0.0459 -0.25879,-0.38575 -0.71679,-1.01758 -0.45117,-0.63477 -0.83301,-1.23438 -1.15332,-1.79785 0.4082,0.13574 1.32812,0.43945 2.75,0.91601 -0.0928,0.27246 -0.16407,0.46778 -0.22461,0.59375 -0.0498,0.125 -0.085,0.22461 -0.0937,0.30078 -0.0117,0.0791 -0.0117,0.13379 0,0.15528 0.009,0.02441 0.0361,0.04785 0.082,0.06836 0.0645,0 0.37695,-0.18848 0.93457,-0.55664 0.55273,-0.37305 0.81836,-0.92286 0.79785,-1.64747 -0.0283,-0.13476 -0.0742,-0.30859 -0.13672,-0.51074 -0.0684,-0.19922 -0.16992,-0.29101 -0.30859,-0.2666 -0.15723,0 -0.32617,0.16797 -0.50781,0.50684 -0.18067,0.33984 -0.31739,0.65625 -0.40918,0.94922 -1.96387,-1.03711 -3.07715,-1.68555 -3.3418,-1.93067 -0.25586,-0.25293 -0.44238,-0.35058 -0.55664,-0.30664 -0.13086,0 -0.2461,0.10547 -0.32227,0.31836 -0.0762,0.21582 -0.12695,0.39258 -0.14941,0.53027 -0.0264,0.13282 -0.0264,0.23536 0,0.30274 0,0.02637 0.004,0.04883 0.0176,0.08203 0.009,0.03809 0.0371,0.07812 0.0781,0.12109 l 0.24512,0.13477 0.20019,0.20312 c 0,0 0.23145,0.24512 0.3711,0.44141 0.13769,0.19629 0.2373,0.33789 0.2373,0.33789 0.0439,0.07031 0.16602,0.29004 0.35742,0.66016 0.19043,0.3789 0.33008,0.6455 0.40821,0.81836 0.0781,0.17089 0.17578,0.5039 0.28906,1.00195 -0.79492,-0.20313 -1.3252,-0.29883 -1.59277,-0.27051 -0.38575,0 -0.67676,0.06738 -0.89063,0.19629 -0.19629,0.14258 -0.2959,0.21582 -0.2959,0.24219 v 0.0664 c 0,0.02344 0,0.0068 0,0.01856 0,0.0088 0.0205,0.0625 0.0645,0.08301 l 0.98242,0.10351 c 0.23144,0.02442 0.625,0.09473 1.20312,0.22168 0.5752,0.12207 1.23633,0.28028 1.98731,0.47071 0.74414,0.19238 1.28515,0.2998 1.625,0.32226 0.40722,0 0.67969,-0.06445 0.8164,-0.20215 0.13379,-0.13086 0.20411,-0.21582 0.21778,-0.2373 0.009,-0.02149 0.0186,-0.0459 0.0186,-0.06641 -0.0244,-0.11328 -0.0498,-0.20019 -0.0869,-0.25293 -0.0322,-0.05957 -0.14942,-0.10937 -0.35645,-0.15332 -0.20215,-0.04785 -1.1748,-0.17383 -2.91211,-0.37402 m -1.97168,3.28808 1.11914,0.20508 c 0.45606,0.06738 0.92481,0.16895 1.40918,0.30274 0.48145,0.13769 0.85743,0.20214 1.10352,0.20214 0.42676,-0.02343 0.70215,-0.1123 0.81543,-0.26953 0.11133,-0.15527 0.16504,-0.24804 0.16504,-0.2666 -0.0205,-0.16211 -0.19922,-0.27832 -0.54004,-0.3457 l -1.32324,-0.19922 -1.1875,-0.24414 c -0.18164,-0.04199 -0.34766,-0.05371 -0.50684,-0.02832 -0.34863,0 -0.61523,0.06543 -0.83398,0.2041 -0.21875,0.13574 -0.32617,0.21582 -0.33692,0.23633 -0.008,0.02246 -0.004,0.05762 0.0156,0.09863 0,0.04883 0.04,0.0791 0.10058,0.10449 m 7.25879,-1.08691 c 0.042,0.52344 0.0899,0.91504 0.13379,1.18945 l 0.10742,1.28809 c 0.0147,0.31641 0.0303,0.8125 0.0303,0.94629 -0.0234,0.23144 -0.0684,0.43847 -0.15332,0.63281 -0.0801,0.19043 -0.12305,0.32031 -0.10352,0.39063 0,0.13183 0.14063,0.27636 0.33985,0.23828 0.5,-0.08887 0.99414,-0.39453 1.12304,-0.60059 0.12403,-0.21094 0.15918,-0.33008 0.1543,-0.35156 -0.0264,-0.14649 -0.0693,-0.23145 -0.1416,-0.4082 l -0.0645,-0.20411 c -0.0459,-0.15625 -0.10937,-0.73828 -0.1875,-1.20214 -0.083,-0.46387 -0.1748,-1.03516 -0.28711,-1.7129 0.34083,0.08887 0.59766,0.17286 0.78321,0.23731 l 0.67285,0.27246 c 0.20312,0.06738 0.37305,0.13379 0.51269,0.19922 0.12891,0.06738 0.23438,0.11621 0.29981,0.13867 0.11719,0 0.39648,-0.16992 0.85059,-0.51172 0.45019,-0.33594 0.68945,-0.55371 0.72949,-0.6416 0.0312,-0.09082 0.0615,-0.21387 0.085,-0.37207 -0.0234,-0.04492 -0.10156,-0.13574 -0.21973,-0.27637 -0.1289,-0.13379 -0.22265,-0.2998 -0.29394,-0.5 -0.0606,-0.20605 -0.10743,-0.458 -0.13672,-0.75293 l -0.19336,-1.35547 -0.24317,-1.72753 c -0.11035,-0.63575 -0.28418,-1.38868 -0.52441,-2.27247 -0.23633,-0.87988 -0.50684,-1.48632 -0.80469,-1.81835 -0.28711,-0.3252 -0.55273,-0.55958 -0.78906,-0.70899 -0.23633,-0.14453 -0.38769,-0.18457 -0.45703,-0.16699 -0.0459,0.0088 -0.0859,0.04297 -0.11719,0.09961 -0.0391,0.05664 -0.11621,0.26465 -0.23828,0.62793 -0.12305,0.3584 -0.25879,0.65722 -0.38965,0.88086 l -0.58105,0.8164 c -0.0205,0 -0.0371,0.04883 -0.0488,0.14942 -0.0107,0.10351 0.0488,0.13183 0.18848,0.08496 l 0.57226,-0.27051 0.44238,-0.23437 c 0.17774,-0.09278 0.31739,-0.12598 0.41114,-0.10254 0.1582,0 0.36035,0.22754 0.625,0.69433 0.25879,0.46094 0.46484,1.08594 0.6123,1.86231 0.14063,0.78222 0.26953,1.53808 0.37403,2.27246 0.0986,0.7334 0.1582,1.27929 0.18164,1.63086 0.0234,0.34863 0.0234,0.6709 0,0.96289 -0.043,0.38574 -0.25098,0.57031 -0.61231,0.51074 -0.1543,-0.02539 -1.08301,-0.2373 -1.08301,-0.2373 l -0.74804,-0.20411 c -0.28907,-1.3125 -0.51563,-2.25976 -0.6543,-2.84961 -0.15137,-0.58691 -0.42578,-1.32714 -0.83984,-2.21972 -0.40137,-0.89453 -0.92383,-1.6416 -1.55664,-2.25684 -0.63086,-0.60937 -1.18458,-1.00683 -1.66211,-1.18652 l -0.40039,-0.16895 c -0.13868,-0.06738 -0.23047,-0.0957 -0.27344,-0.08496 -0.0469,0.01172 -0.0772,0.04004 -0.0889,0.08496 -0.0117,0.04395 0.042,0.12403 0.1543,0.24024 l 0.40918,0.33496 c 1.15136,0.93164 1.93457,1.83984 2.35644,2.73047 0.41602,0.89355 0.68262,1.52734 0.79688,1.90136 0.11426,0.37403 0.24707,0.84864 0.40625,1.42481 0.15527,0.57617 0.25097,0.91797 0.27246,1.03125 l 0.13379,0.74609 c -0.22754,-0.01953 -0.40625,-0.0498 -0.54785,-0.08203 -0.13086,-0.03418 -0.22461,-0.04004 -0.26465,-0.02051 -0.47364,0.09375 -0.72559,0.20606 -0.75098,0.3418 -0.0215,0.13574 -0.0215,0.21484 0,0.23731 0,0.0205 0.0332,0.04492 0.10742,0.06445 l 0.57032,0.07129 c 0.43066,0.04492 0.77539,0.10156 1.0205,0.16699 z"
         style="fill:#231f20;fill-opacity:1;fill-rule:nonzero;stroke:none"
         transform="matrix(1.3333333,0,0,-1.3333333,161.66145,116.30469)" />
      <path
         id="path29"
         d="m 609.50391,51.96289 c 0,0.17578 -0.003,0.35156 -0.0156,0.5293 -0.008,0.17187 -0.0264,0.43652 -0.0469,0.78613 -0.0264,0.35645 -0.0615,0.61523 -0.10254,0.79395 -0.0498,0.17382 -0.12793,0.40722 -0.24903,0.69238 -0.11718,0.28418 -0.16796,0.44726 -0.1455,0.49512 0,0.08398 0.16796,0.14941 0.51171,0.17871 0.33985,0.0332 0.67188,-0.04883 1.00196,-0.24805 0.11328,-0.08496 0.1748,-0.15332 0.19824,-0.19727 0.0156,-0.04394 0.0371,-0.08203 0.0498,-0.11523 0.01,-0.0332 0.004,-0.09082 -0.0176,-0.18164 -0.041,-0.15039 -0.0772,-0.375 -0.11426,-0.67676 -0.0322,-0.29394 -0.0488,-0.54297 -0.0488,-0.74121 l -0.0361,-1.18555 c 1.41406,0.15235 2.41894,0.29493 3.03808,0.41114 0.61231,0.12304 1.042,0.23242 1.29297,0.33007 0.25586,0.09864 0.4043,0.16114 0.44922,0.18457 0.0439,0 0.36133,-0.12988 0.95215,-0.38085 0.59766,-0.25 0.9834,-0.54493 1.15527,-0.87305 0.17969,-0.32715 0.2666,-0.5166 0.2666,-0.56055 -0.0244,-0.1543 -0.085,-0.24805 -0.18359,-0.28027 -0.0957,-0.03223 -0.39844,-0.05274 -0.88867,-0.06445 -0.49609,-0.0127 -1.06934,-0.18165 -1.73438,-0.51172 l -0.32617,-0.16602 c -0.16992,-0.08496 -0.27929,-0.12598 -0.31152,-0.11328 -0.0273,0.01367 -0.0596,0.02051 -0.0811,0.03125 -0.0205,0.01074 -0.0439,0.02246 -0.0537,0.03418 -0.008,0.0098 0.15235,0.31348 0.15235,0.31348 l 0.49609,0.84668 c 0.0234,0.04687 0.32324,0.52832 0.32324,0.60253 0,0.03614 -0.0967,0.08497 -0.15625,0.12989 -0.24902,0.0664 -1.22558,-0.04492 -2.93945,-0.3291 l -4.87598,-0.65528 -1.22265,-0.2334 -0.3584,-0.06543 c -0.19824,-0.65918 -0.42774,-1.23535 -0.69531,-1.73046 -0.26465,-0.4961 -0.50098,-0.72852 -0.71875,-0.70997 -0.15918,0 -0.26075,0.07813 -0.29981,0.23438 -0.0439,0.15137 -0.0664,0.27539 -0.0664,0.35937 v 0.24317 c 0,0.11328 0,0.14453 0,0.16211 0,0.06836 0.01,0.18847 0.0352,0.25293 0.0225,0.06543 0.11621,0.24219 0.2959,0.52929 0.17285,0.28321 0.28906,0.56641 0.3418,0.83985 0.0557,0.27246 0.0937,0.50586 0.11914,0.69238 0.0205,0.18652 0.0488,0.33399 0.0771,0.44434 0.0371,0.1084 0.0947,0.16406 0.18359,0.16406 0.0439,-0.02246 0.19043,-0.17578 0.42969,-0.45996 0.24414,-0.28418 0.4209,-0.40918 0.52929,-0.36426 0.24219,0.13379 0.55371,0.19531 0.93653,0.17969 0.38672,-0.0068 1.33398,0.11719 2.85254,0.38281 m -0.23438,-3.92285 -0.82031,-0.13086 c -0.0205,-0.17871 -0.0723,-0.31152 -0.14942,-0.41113 -0.0781,-0.10157 -0.16894,-0.0918 -0.28222,0.01367 -0.0635,0.0459 -0.2666,0.37402 -0.58789,0.99023 -0.33008,0.61426 -0.51563,0.94434 -0.54199,0.98828 -0.0352,0.0459 -0.0635,0.08301 -0.0752,0.12012 -0.006,0.02735 0,0.13379 0.0488,0.18262 0.0322,0.03613 0.0732,0.06641 0.13574,0.09375 0.0234,0 0.0752,-0.0059 0.14648,-0.01563 0.0762,-0.01269 0.17383,-0.0059 0.28614,0.01563 0.35156,0.01953 0.98926,0.11133 1.90918,0.27832 0.92285,0.16601 1.51269,0.32617 1.76367,0.48144 0.24902,0.1504 0.42676,0.22754 0.50976,0.22754 0.29102,-0.02148 0.5918,-0.12011 0.90821,-0.29394 0.31738,-0.17969 0.51172,-0.31445 0.59375,-0.41504 0.0723,-0.09668 0.1123,-0.16016 0.1123,-0.17969 -0.0254,-0.0664 -0.0518,-0.11426 -0.084,-0.14746 -0.0283,-0.03223 -0.16602,-0.11523 -0.39649,-0.24805 -0.22558,-0.13183 -0.39843,-0.26757 -0.50586,-0.40918 -0.1123,-0.14453 -0.16699,-0.25097 -0.16699,-0.3164 l -0.0371,-0.22852 c -0.0381,-0.13379 -0.62402,-0.28613 -1.74609,-0.46484 0.0674,-0.10938 0.11621,-0.19531 0.15332,-0.26172 0.0264,-0.06543 0.0459,-0.15137 0.0459,-0.26563 l -0.0312,-0.625 c 0.58984,0.08887 1.09668,0.19727 1.49902,0.33106 0.40625,0.12988 0.64453,0.20801 0.71094,0.23144 0.0449,0 0.24023,-0.04882 0.59375,-0.14746 0.35058,-0.09765 0.5918,-0.22168 0.7207,-0.36425 0.13574,-0.14454 0.20215,-0.23731 0.20215,-0.2793 -0.0254,-0.02344 -0.0449,-0.0625 -0.0664,-0.11816 -0.0205,-0.05762 -0.0537,-0.15723 -0.083,-0.31153 -0.0322,-0.1543 -0.0547,-0.34765 -0.0693,-0.58008 -0.01,-0.22851 -0.002,-0.52539 0.0166,-0.88672 0.0244,-0.35937 0.043,-0.6582 0.0527,-0.8916 0.0107,-0.22851 -0.01,-0.42871 -0.0527,-0.60547 -0.042,-0.1123 -0.11816,-0.31445 -0.23047,-0.61425 -0.0898,-0.24903 -0.20507,-0.39356 -0.34179,-0.43262 -0.0322,-0.0078 -0.11328,-0.05176 -0.23536,0.0088 -0.0537,0.02832 -0.1875,0.17969 -0.4121,0.44336 -0.21875,0.26367 -0.5,0.52441 -0.85352,0.79004 l -0.32715,0.23144 c -0.0664,0.0459 -0.10547,0.08008 -0.11719,0.10156 -0.0146,0.02149 0.0254,0.08594 0.042,0.09766 0.0361,0.01953 0.11523,0.03223 0.23144,0.03223 h 0.33496 l 0.42774,-0.03711 c 0.0391,0 0.0752,0 0.10058,0 0.083,0 0.14942,0.01172 0.19824,0.03711 0.0439,0.02246 0.0654,0.11035 0.0791,0.26367 0.0117,0.15234 0.0195,0.30762 0.0195,0.45703 -0.0469,0.88477 -0.11621,1.41797 -0.22168,1.60156 -0.0928,0.18946 -0.15235,0.292 -0.17578,0.3125 l -0.083,0.01856 c -0.0488,0.02148 -0.11719,0.01562 -0.11719,0.01562 -0.0205,0 -0.64062,-0.11133 -1.86816,-0.3291 0,-0.57519 0,-1.02734 0.0107,-1.37402 0.01,-0.33496 0.0146,-0.68262 0.0146,-1.03418 -0.0205,-0.6377 -0.0547,-1.2666 -0.10059,-1.89258 -0.04,-0.625 -0.11328,-1.16602 -0.21289,-1.61719 -0.0967,-0.44824 -0.21094,-0.66601 -0.34375,-0.64062 -0.24512,0 -0.35156,0.55859 -0.32422,1.67871 V 42.042 c 0,0.22168 0.004,0.97852 0.0274,2.27637 0,0.6123 0,1.02051 0,1.2207 l -0.0274,0.72071 -1.85351,-0.36036 c -0.11133,-0.79296 -0.18067,-1.41699 -0.21094,-1.88183 -0.0332,-0.45508 -0.11035,-0.77539 -0.23438,-0.95215 -0.11621,-0.17773 -0.21093,-0.25195 -0.27636,-0.22852 -0.24317,0.04395 -0.38477,0.17286 -0.43164,0.39356 -0.041,0.22168 -0.0527,0.38476 -0.0303,0.49219 0,0.04394 0.0205,0.20214 0.0664,0.46289 0.042,0.26465 0.0703,0.5 0.0811,0.708 0.0127,0.20704 0.0215,0.4004 0.0312,0.5752 0.0117,0.17773 0.0215,0.375 0.0215,0.5957 -0.0244,0.17481 -0.0527,0.2959 -0.084,0.35938 -0.0342,0.06738 -0.0391,0.11133 -0.0166,0.13379 l 0.0615,0.16601 c 0.0234,0.04297 0.0684,0.06641 0.13769,0.06641 0.11035,-0.02344 0.20606,-0.04492 0.29492,-0.06641 l 0.36524,-0.16601 c 0.0625,-0.04297 0.16113,-0.04199 0.29297,-0.03321 0.35449,0.02442 0.91308,0.10059 1.75,0.29786 0,0.15625 -0.0108,0.30078 -0.0195,0.44238 -0.0117,0.14551 -0.0645,0.40137 -0.15235,0.77539 m -1.05566,4.68066 c -0.0166,-0.24121 -0.083,-0.41308 -0.19629,-0.50781 -0.10938,-0.10059 -0.19629,-0.13867 -0.2666,-0.12012 -0.0801,0 -0.24707,0.10938 -0.48926,0.32911 -0.24121,0.21972 -0.40723,0.44433 -0.49121,0.67675 -0.0908,0.23242 -0.15235,0.39258 -0.1836,0.47754 -0.0312,0.08789 -0.0449,0.16602 -0.0312,0.23047 0.006,0.06641 0.0684,0.09863 0.18262,0.09863 0.19434,-0.02343 0.49024,-0.14453 0.88477,-0.37793 0.39453,-0.23046 0.59082,-0.5 0.59082,-0.80664 m -0.0967,-3.32715 0.26562,-0.96093 c 1.6416,0.24609 2.52246,0.41699 2.61719,0.51367 0.10254,0.09863 0.17383,0.24902 0.2168,0.44726 0.0371,0.19629 0.0674,0.33985 0.0674,0.42481 -0.0303,0.13379 -0.11035,0.20215 -0.26465,0.20215 -0.24316,-0.02442 -1.20801,-0.23633 -2.90234,-0.62696 m 3.49511,3.85547 -0.32812,-0.16504 c -0.0674,-0.04687 -0.12402,-0.06347 -0.16699,-0.05175 -0.0391,0.01074 -0.0811,0.02636 -0.0977,0.05175 -0.0273,0.01954 -0.0312,0.04102 -0.0195,0.04883 0.0156,0.01465 0.0225,0.02149 0.0332,0.03028 0.0127,0.01269 0.0586,0.06054 0.11621,0.15039 l 0.19629,0.26269 0.3291,0.39844 c 0.0488,0.04004 0.13379,0.18457 0.26563,0.42871 0.13281,0.23926 0.21191,0.40625 0.23242,0.48926 l 0.0332,0.20019 c 0.0225,0.10938 0.085,0.167 0.19532,0.167 0.0439,-0.02442 0.29492,-0.11817 0.75976,-0.28223 0.45996,-0.16699 0.69239,-0.38086 0.69239,-0.64453 v -0.06446 c -0.0264,-0.13085 -0.17774,-0.25585 -0.46289,-0.37988 -0.28321,-0.12109 -0.62793,-0.24804 -1.02149,-0.37793 -0.39648,-0.13183 -0.64551,-0.21777 -0.75684,-0.26172 z"
         style="fill:#231f20;fill-opacity:1;fill-rule:nonzero;stroke:none"
         transform="matrix(1.3333333,0,0,-1.3333333,161.66145,116.30469)" />
      <path
         id="path30"
         d="m 623.97363,51.03125 c -0.5957,-0.1543 -1.05664,-0.21289 -1.36621,-0.16699 -0.35254,0.02344 -0.60937,0.09863 -0.76074,0.23144 -0.16113,0.13672 -0.23438,0.23731 -0.22168,0.32129 0.0117,0.07227 0.0606,0.125 0.14844,0.14942 l 0.90332,0.16308 1.74023,0.40332 c 0.28418,0.71192 0.48145,1.2959 0.5752,1.75098 0.10547,0.4541 0.13281,0.76269 0.0859,0.91309 L 625.01367,55 c -0.0469,0.08789 -0.0566,0.19629 -0.0381,0.31445 0.0234,0.12598 0.17968,0.16504 0.46679,0.12207 0.0684,-0.02539 0.33106,-0.15429 0.78418,-0.38574 0.46289,-0.2334 0.61035,-0.47363 0.45606,-0.71582 -0.0244,-0.04687 -0.0967,-0.11719 -0.21875,-0.21875 -0.12696,-0.10156 -0.28418,-0.38476 -0.48731,-0.84668 L 625.64453,52.5 c 0.625,0.13281 1.23047,0.29004 1.81934,0.48535 0.58593,0.18653 1.00683,0.29492 1.24707,0.31641 0.39844,0.02344 0.63183,-0.04688 0.6875,-0.20313 0.0566,-0.15625 0.0518,-0.28906 -0.0186,-0.40136 -0.19531,-0.24414 -1.32324,-0.6211 -3.36621,-1.13086 l -0.80664,-0.20411 c -0.54687,-1.24511 -0.96875,-2.11816 -1.24609,-2.61816 -0.2793,-0.49512 -0.81641,-1.3623 -1.61719,-2.58496 -0.0225,-0.92969 -0.0283,-1.75586 -0.0156,-2.4668 0.008,-0.71093 0.0156,-1.21093 0.0156,-1.5 -0.0225,-0.26953 -0.0518,-0.60351 -0.0811,-1.00195 -0.0312,-0.40137 -0.11231,-0.70605 -0.23731,-0.91699 -0.12012,-0.21289 -0.25195,-0.28614 -0.38379,-0.21582 -0.13379,0.04297 -0.2373,0.22558 -0.3164,0.54785 -0.0771,0.32422 -0.12696,0.57031 -0.15332,0.75293 -0.0225,0.17773 -0.0225,0.30957 0,0.39941 l 0.10156,0.63086 c 0.0898,0.5586 0.13769,1.05957 0.13769,1.50098 v 0.96777 c -0.49511,-0.53418 -0.95996,-0.99707 -1.40429,-1.40137 -0.44434,-0.39648 -0.84278,-0.67578 -1.19532,-0.83203 L 618.371,42.38867 c -0.10742,-0.06543 -0.18554,-0.09375 -0.23144,-0.08203 -0.0439,0.01172 -0.0644,0.04395 -0.0644,0.10254 0,0.05469 0.0644,0.14941 0.19531,0.28125 l 0.30371,0.30078 c 0.8457,0.84277 1.80273,2.01172 2.86914,3.50293 -0.0205,0.26758 -0.0459,0.50488 -0.0664,0.71484 -0.0244,0.2129 -0.0576,0.37793 -0.10351,0.5 -0.0449,0.12305 -0.0547,0.20801 -0.0312,0.25 0.043,0.08985 0.13476,0.12598 0.26562,0.10254 0.24903,-0.04785 0.47657,-0.16797 0.70215,-0.36718 0.0889,0.18066 0.1709,0.31152 0.23145,0.39941 l 0.59863,1.00098 0.80762,1.67187 0.12597,0.26465 m 3.13672,-7.70508 0.0342,1.43262 0.0361,1.10156 c -0.57714,-0.13379 -1.03808,-0.1875 -1.36816,-0.16797 -0.53418,0 -0.91992,0.06934 -1.16797,0.2002 l -0.29785,0.20215 c -0.0723,0.02148 -0.1084,0.04199 -0.11621,0.06445 -0.0137,0.02148 -0.009,0.06055 0.0195,0.11816 0.0146,0.05371 0.0635,0.09278 0.12891,0.11719 l 0.43359,0.0332 2.33203,0.43457 c 0,0.57715 -0.0303,1.01661 -0.0762,1.31836 -0.0606,0.29883 -0.13477,0.54297 -0.22363,0.73438 -0.085,0.18457 -0.1377,0.30273 -0.14551,0.34766 -0.01,0.04687 0,0.11816 0.0342,0.21582 0.0312,0.10058 0.16601,0.13183 0.41113,0.08398 0.80664,-0.17578 1.2334,-0.31836 1.29785,-0.41406 0.0742,-0.09961 0.10547,-0.18653 0.10547,-0.25098 -0.0225,-0.07129 -0.0772,-0.19043 -0.16992,-0.36816 -0.0869,-0.17969 -0.13184,-0.39063 -0.13184,-0.63575 l -0.0664,-0.86816 c 0.92969,0.33691 1.63379,0.49512 2.08789,0.48633 0.45508,-0.0088 0.67676,-0.14942 0.66504,-0.40039 -0.0107,-0.25879 -0.30469,-0.46094 -0.88184,-0.61719 l -1.17187,-0.2666 -0.69922,-0.16992 -0.0332,-1.2002 -0.0332,-1.43262 0.66504,0.09961 1.27246,0.2002 c 0.64649,0.08789 1.19434,0.13574 1.66797,0.13574 0.33301,-0.02637 0.62891,-0.12793 0.90234,-0.31836 0.26075,-0.1875 0.41895,-0.37793 0.46485,-0.56836 0.0449,-0.1914 -0.0684,-0.29297 -0.33106,-0.3164 -0.11328,-0.02246 -0.34668,-0.01172 -0.70312,0.0332 -0.35449,0.04492 -1.27246,0.05664 -2.73438,0.0332 -0.71484,-0.0205 -1.46191,-0.05957 -2.24902,-0.12011 -0.7959,-0.04981 -1.55762,-0.17579 -2.29102,-0.36329 -0.73046,-0.1914 -1.10937,-0.28418 -1.13281,-0.28418 -0.085,-0.0166 -0.23535,0 -0.43359,0.06739 -0.19727,0.06933 -0.36914,0.17871 -0.49903,0.33398 -0.13671,0.15528 -0.18847,0.25977 -0.17187,0.31836 0.0176,0.05371 0.10351,0.09375 0.2334,0.11719 l 0.90234,0.03125 c 0.19727,0 1.34766,0.16699 3.43457,0.50195 z"
         style="fill:#231f20;fill-opacity:1;fill-rule:nonzero;stroke:none"
         transform="matrix(1.3333333,0,0,-1.3333333,161.66145,116.30469)" />
      <path
         id="path31"
         d="m 661.02734,61.86914 h 7.86817 v 2.74414 h -7.86817 v 3.72656 h -4.42089 v -3.72656 h -6.96094 v -2.74414 h 6.96094 v -3.81738 h -7.69922 v -2.80762 h 20.8457 v 2.80762 h -8.72559 v 3.81738 m 0.0293,-14.3125 h 7.83887 v 2.77734 h -7.83887 v 4.1377 h -4.45019 v -4.1377 h -6.96094 v -2.77734 h 6.96094 v -4.1543 h -7.66993 v -2.77246 h 20.81641 v 2.77246 h -8.69629 v 4.1543 m -11.46387,20.77539 -4.0498,0.01758 c -2.15625,-6.08106 -6.4082,-11.08594 -6.4082,-11.08594 l 2.34961,-3.24023 c 0.33398,0.41894 1.53808,1.9248 1.53808,1.9248 V 40.6377 h 4.42774 v 18.43164 h -2.27051 c 3.37597,5.46972 4.41308,9.26269 4.41308,9.26269 z"
         style="fill:#e31b22;fill-opacity:1;fill-rule:nonzero;stroke:none"
         transform="matrix(1.3333333,0,0,-1.3333333,161.66145,116.30469)" />
      <path
         id="path32"
         d="m 698.21289,57.97363 c -0.59668,0.05567 -0.63867,0.69239 -0.63867,0.69239 v 1.85937 c 5.7207,2.00879 7.96191,3.51856 7.96191,3.51856 v 3.44238 c -2.74609,-1.81934 -6.02539,-3.20801 -7.96191,-3.85352 v 4.73828 h -4.42383 l -0.01,-10.41894 c 0,-1.37207 1.12988,-2.74512 2.74804,-2.74512 0.1416,0 10.17578,0 10.17578,0 v 2.7666 h -7.85156 z"
         style="fill:#e31b22;fill-opacity:1;fill-rule:nonzero;stroke:none"
         transform="matrix(1.3333333,0,0,-1.3333333,161.66145,116.30469)" />
      <path
         id="path33"
         d="m 677.3125,40.62598 h 4.4541 v 5.08886 h 4.53809 v -1.47851 c 0,-0.86524 -0.70606,-0.85156 -0.70606,-0.85156 h -1.37988 l -0.006,-2.76954 4.03906,0.002 c 2.5459,0.39551 2.5166,2.7539 2.5166,2.7539 v 14.61719 h -13.44726 l -0.009,-17.3623 m 4.4541,14.45898 h 4.55762 v -1.92285 h -4.55762 V 55.085 m 0,-4.7207 h 4.55762 v -1.75781 h -4.55762 v 1.75781 m 5.90528,15.67871 -2.28614,-1.75195 c 0,0 1.3877,-1.64551 1.59864,-2.0293 L 680.86133,61.75 c 0,0 2.48242,2.98828 3.56445,4.87695 l -2.66992,1.77637 c 0,0 -2.58301,-4.22656 -5.92188,-7.22266 l 2.15918,-2.44726 10.7959,0.84863 c 0,0 0.45996,-0.78613 0.49903,-0.89453 l 2.44921,1.53906 c 0,0 -2.35644,4.10742 -4.06542,5.81641 z"
         style="fill:#e31b22;fill-opacity:1;fill-rule:nonzero;stroke:none"
         transform="matrix(1.3333333,0,0,-1.3333333,161.66145,116.30469)" />
      <path
         id="path34"
         d="m 698.21289,43.39453 c -0.59668,0.05762 -0.63867,0.69141 -0.63867,0.69141 v 1.97754 c 5.00488,1.62793 7.96191,3.52246 7.96191,3.52246 v 3.41015 c -2.21777,-1.49023 -5.52636,-3.02832 -7.96191,-3.85449 v 5.33789 h -4.42383 l -0.01,-11.1084 c 0,-1.37207 1.12988,-2.74511 2.74804,-2.74511 0.1416,0 10.17578,0 10.17578,0 v 2.76855 h -7.85156 z"
         style="fill:#e31b22;fill-opacity:1;fill-rule:nonzero;stroke:none"
         transform="matrix(1.3333333,0,0,-1.3333333,161.66145,116.30469)" />
    </g>
  </g>
</svg>
